<svg width="1472" height="755" viewBox="0 0 1472 755" fill="none" xmlns="http://www.w3.org/2000/svg">
<g clip-path="url(#clip0_513_1749)">
<path d="M1314.44 0H157.56C70.5421 0 0 70.7431 0 158.009V596.991C0 684.257 70.5421 755 157.56 755H1314.44C1401.46 755 1472 684.257 1472 596.991V158.009C1472 70.7431 1401.46 0 1314.44 0Z" fill="black"/>
<path d="M459.58 252.419C466.412 252.419 472.907 254.019 478.885 257.174C492.616 264.409 501.156 278.562 501.156 294.113C501.156 317.101 482.503 335.807 459.58 335.807C436.658 335.807 418.005 317.101 418.005 294.113C418.005 271.125 436.658 252.419 459.58 252.419ZM459.58 227.628C422.971 227.628 393.284 257.4 393.284 294.113C393.284 330.826 422.971 360.598 459.58 360.598C496.189 360.598 525.877 330.826 525.877 294.113C525.877 268.556 511.494 246.356 490.391 235.246C481.177 230.377 470.705 227.628 459.58 227.628Z" fill="white"/>
<path d="M376.427 623.157C242.599 623.157 133.716 513.964 133.716 379.754C133.716 245.545 242.599 136.351 376.427 136.351C409.845 136.351 442.229 143.045 472.68 156.252C478.95 158.979 481.827 166.258 479.13 172.546C476.411 178.834 469.152 181.719 462.882 179.014C435.554 167.16 406.474 161.165 376.45 161.165C256.24 161.165 158.459 259.225 158.459 379.777C158.459 500.329 256.24 598.389 376.45 598.389C496.659 598.389 594.441 500.329 594.441 379.777C594.441 346.038 586.979 313.697 572.304 283.655C571.36 281.74 570.394 279.824 569.405 277.953C566.214 271.891 568.529 264.408 574.574 261.208C580.619 258.008 588.081 260.329 591.272 266.392C592.373 268.488 593.452 270.606 594.508 272.747C610.868 306.215 619.184 342.23 619.184 379.799C619.184 514.009 510.301 623.202 376.472 623.202L376.427 623.157Z" fill="white"/>
<path d="M947.812 621.309C940.981 621.309 935.452 615.765 935.452 608.913V401.164C935.452 394.313 940.981 388.769 947.812 388.769C954.644 388.769 960.173 394.313 960.173 401.164V608.913C960.173 615.765 954.644 621.309 947.812 621.309Z" fill="#00CA7C"/>
<path d="M1252.5 620.7C1233.02 620.7 1213.6 613.893 1197.85 600.416C1192.66 595.976 1192.03 588.156 1196.45 582.95C1200.88 577.744 1208.68 577.113 1213.87 581.552C1235 599.605 1265.4 600.709 1287.83 584.234C1314.37 564.74 1320.15 527.192 1300.69 500.576C1291.27 487.685 1277.4 479.233 1261.65 476.799C1245.9 474.365 1230.14 478.219 1217.29 487.685L1210.43 492.71C1204.93 496.744 1197.2 495.573 1193.15 490.028C1189.11 484.507 1190.32 476.754 1195.82 472.697L1202.68 467.671C1220.86 454.307 1243.15 448.853 1265.42 452.301C1287.7 455.749 1307.32 467.694 1320.64 485.927C1348.15 523.564 1339.99 576.639 1302.46 604.225C1287.47 615.246 1269.96 620.7 1252.53 620.7H1252.5Z" fill="#00CA7C"/>
<path d="M1197.26 621.309C1190.43 621.309 1184.9 615.765 1184.9 608.913V401.164C1184.9 394.313 1190.43 388.769 1197.26 388.769C1204.1 388.769 1209.62 394.313 1209.62 401.164V608.913C1209.62 615.765 1204.1 621.309 1197.26 621.309Z" fill="#00CA7C"/>
<path d="M1072.29 619.821C1030.96 619.821 997.317 582.725 997.317 537.155V471.075C997.317 464.224 1002.85 458.68 1009.68 458.68C1016.51 458.68 1022.04 464.224 1022.04 471.075V537.155C1022.04 569.067 1044.58 595.03 1072.29 595.03C1100 595.03 1122.54 569.067 1122.54 537.155V471.075C1122.54 464.224 1128.07 458.68 1134.9 458.68C1141.73 458.68 1147.26 464.224 1147.26 471.075V537.155C1147.26 582.748 1113.64 619.821 1072.29 619.821Z" fill="#00CA7C"/>
<path d="M1011.61 308.807C970.284 308.807 936.642 271.711 936.642 226.14V160.061C936.642 153.209 942.17 147.665 949.002 147.665C955.834 147.665 961.362 153.209 961.362 160.061V226.14C961.362 258.053 983.903 284.016 1011.61 284.016C1039.32 284.016 1061.86 258.053 1061.86 226.14V160.061C1061.86 153.209 1067.39 147.665 1074.22 147.665C1081.05 147.665 1086.58 153.209 1086.58 160.061V226.14C1086.58 271.733 1052.96 308.807 1011.61 308.807Z" fill="#00CA7C"/>
<path d="M837.243 621.287C814.365 621.287 792.836 612.34 776.655 596.113C760.475 579.886 751.553 558.318 751.553 535.352C751.553 512.387 760.475 490.819 776.655 474.592C792.836 458.365 814.343 449.418 837.243 449.418C860.144 449.418 881.651 458.365 897.831 474.592C902.663 479.437 902.663 487.28 897.831 492.126C893 496.971 885.179 496.971 880.347 492.126C868.841 480.587 853.536 474.231 837.243 474.231C820.95 474.231 805.646 480.587 794.14 492.126C782.633 503.665 776.296 519.013 776.296 535.352C776.296 551.692 782.633 567.04 794.14 578.579C805.646 590.118 820.95 596.474 837.243 596.474C853.536 596.474 868.841 590.118 880.347 578.579C885.179 573.733 893 573.733 897.831 578.579C902.663 583.424 902.663 591.267 897.831 596.113C881.651 612.34 860.144 621.287 837.243 621.287V621.287Z" fill="#00CA7C"/>
<path d="M837.267 314.779H836.953C814.075 314.689 792.59 305.674 776.477 289.38C760.364 273.085 751.532 251.495 751.599 228.529C751.689 205.586 760.678 184.04 776.904 167.881C793.152 151.722 814.726 142.955 837.582 142.932C860.46 143.023 881.944 152.037 898.08 168.309C902.889 173.177 902.867 181.02 898.012 185.843C893.158 190.666 885.338 190.644 880.528 185.776C856.841 161.864 818.187 161.706 794.321 185.46C782.769 196.954 776.365 212.28 776.32 228.619C776.252 244.936 782.545 260.329 794.006 271.913C805.467 283.498 820.749 289.921 837.042 289.966H837.267C853.47 289.966 868.707 283.678 880.191 272.229C885.045 267.406 892.866 267.428 897.675 272.297C902.485 277.165 902.462 285.008 897.608 289.831C881.45 305.922 860.033 314.779 837.267 314.779V314.779Z" fill="#00CA7C"/>
<path d="M1205.2 312.435C1158.72 312.435 1120.92 274.527 1120.92 227.92C1120.92 181.313 1158.72 143.405 1205.2 143.405C1251.67 143.405 1289.47 181.313 1289.47 227.92C1289.47 235.042 1283.7 240.834 1276.59 240.834H1196.99C1189.89 240.834 1184.12 235.042 1184.12 227.92C1184.12 220.798 1189.89 215.006 1196.99 215.006H1262.28C1256.39 188.84 1233.02 169.233 1205.17 169.233C1172.9 169.233 1146.65 195.557 1146.65 227.92C1146.65 260.284 1172.9 286.607 1205.17 286.607C1217.22 286.607 1228.77 282.979 1238.59 276.105C1243.67 272.544 1248.14 268.239 1251.87 263.281C1256.17 257.602 1264.23 256.475 1269.92 260.78C1275.58 265.084 1276.71 273.175 1272.41 278.877C1267.04 285.999 1260.62 292.197 1253.31 297.29C1239.13 307.206 1222.48 312.435 1205.15 312.435H1205.2Z" fill="#00CA7C"/>
</g>
<defs>
<clipPath id="clip0_513_1749">
<rect width="1472" height="755" fill="white"/>
</clipPath>
</defs>
</svg>
